<svg id="Colorido" xmlns="http://www.w3.org/2000/svg" viewBox="0 0 816.11 180.22"><defs><style>.cls-1{fill:#003d55;}</style></defs><title>Prancheta 1</title><g id="Logo"><path class="cls-1" d="M613.64,26.24A91.55,91.55,0,0,0,584.18,7.06a101.19,101.19,0,0,0-74.27,0,93.47,93.47,0,0,0-29.7,19.3,88.37,88.37,0,0,0-26.74,63.75v.49a87.17,87.17,0,0,0,7.06,34.91A88.64,88.64,0,0,0,480,154a91.28,91.28,0,0,0,29.46,19.18,101.17,101.17,0,0,0,74.26,0,93.15,93.15,0,0,0,29.71-19.31,88.33,88.33,0,0,0,26.74-63.74v-.5a87,87,0,0,0-7.06-34.9A88.64,88.64,0,0,0,613.64,26.24ZM591.11,90.6a49.38,49.38,0,0,1-3.23,17.83A46.68,46.68,0,0,1,579,123.16a41.76,41.76,0,0,1-13.9,10,43.39,43.39,0,0,1-18.13,3.72,42.15,42.15,0,0,1-18.12-3.84,43.65,43.65,0,0,1-14-10.27,47.08,47.08,0,0,1-9.07-14.86,49.36,49.36,0,0,1-3.22-17.82v-.5a51.06,51.06,0,0,1,3.1-17.82,43.79,43.79,0,0,1,8.94-14.73,43.3,43.3,0,0,1,13.9-10,45,45,0,0,1,36.12.12A45.21,45.21,0,0,1,578.7,57.43a45.84,45.84,0,0,1,9.18,14.85,49.46,49.46,0,0,1,3.23,17.83Z"/><path class="cls-1" d="M736.4,75.5v35.16h34.16v21q-10.93,7.19-27.82,7.18a48.77,48.77,0,0,1-19-3.59,46,46,0,0,1-14.9-9.9A43.63,43.63,0,0,1,699,110.16a52.63,52.63,0,0,1-3.48-19.31v-.49A49.38,49.38,0,0,1,699,71.79a48.71,48.71,0,0,1,9.4-15.1,43.82,43.82,0,0,1,14-10.15,41.2,41.2,0,0,1,17.45-3.71A56.9,56.9,0,0,1,762.52,47,77.2,77.2,0,0,1,781.7,59.17l28.22-33.92A108.61,108.61,0,0,0,779.35,6.69Q762.64,0,739.62,0a98.57,98.57,0,0,0-37.23,6.93,87.82,87.82,0,0,0-29.5,19.19,89.67,89.67,0,0,0-26.35,64v.49a89.67,89.67,0,0,0,7.18,36.27,85.14,85.14,0,0,0,19.8,28.35,89.52,89.52,0,0,0,29.83,18.44,104.5,104.5,0,0,0,37.51,6.56q23.76,0,42.57-7.68a126,126,0,0,0,32.68-19.06v-78Z"/><path class="cls-1" d="M344.09,4H282.67l-33.4,43.18L280.8,88h0L215.52,3.58H154.1l12.7,17L154.18,3.69h-.1L107.57,68.32,61.06,3.7l-13.78,0V3.58H0V175.79H47.28V67l60.27,79.26v.06l0,0,0,0v-.06L184.8,44.72,217.4,88.4v0l.05.06v0h0L151.34,176.3h60l37.53-47.75,37.88,48.2h60.05L280.81,88ZM209.28,172H160.05l60.87-80.88,2-2.61-1.95-2.61L162.76,7.93h50.63l61.9,80Z"/><polygon class="cls-1" points="401.23 4.67 355.5 4.67 355.5 176.87 459.61 176.87 459.61 134.79 401.23 134.79 401.23 4.67"/></g></svg>